<svg data-name="Layer 1" xmlns="http://www.w3.org/2000/svg" width="685.626" height="570"><path d="M453.478 466H43.955V0h409.523z" fill="#fff"/><path d="M453.478 466H43.955V0h409.523zm-403.523-5.565h397.523V5.565H49.955z" fill="#e6e6e6"/><path fill="#0d6efd" d="M44.645 0h409v59.612h-409z"/><circle cx="103.284" cy="113.18" r="34.822" fill="#e6e6e6"/><path fill="#e6e6e6" d="M166.1 88.6h119.281v10.242H166.1zM166.1 113.18h262.871v10.242H166.1zM166.1 137.761h262.871v10.242H166.1z"/><circle cx="103.284" cy="398.21" r="34.822" fill="#e6e6e6"/><path fill="#e6e6e6" d="M166.1 373.629h119.281v10.242H166.1zM166.1 398.21h262.871v10.242H166.1zM166.1 422.79h262.871v10.242H166.1z"/><path fill="#fff" d="M57.197 15.232h51.891v7.511H57.197zM57.197 28.204h51.891v7.511H57.197zM57.197 41.177h51.891v7.511H57.197zM497.433 321.958H0V189.432h497.433z"/><path d="M497.433 321.958H0V189.432h497.433zM6 315.958h485.433V195.432H6z" fill="#ccc"/><circle cx="61.729" cy="255.504" r="34.427" fill="#0d6efd"/><path fill="#3f3d56" d="M133.959 226.477h142.435v10.126H133.959zM133.959 250.778h313.896v10.126H133.959zM133.959 275.08h313.896v10.126H133.959z"/><path d="M577.01 356.891a8.976 8.976 0 0 1 1.35-.418l15.188-39.462-6.445-7.999 10.8-11.304c3.12 4.592 18.557 14.268 13.86 21.167L588.19 360.81a8.96 8.96 0 0 1-5.394 12.996c-10.522 3.154-16.026-13.036-5.787-16.915z" fill="#a0616a"/><path d="M591.383 316.842c-2.724.785-13.014-15.215-14.734-16.607a10.656 10.656 0 0 1 14.602-15.522l15.827 11.078a3.86 3.86 0 0 1 .587 5.78c-1.893 1.287-13.592 16.253-16.282 15.27z" fill="#0d6efd"/><path fill="#a0616a" d="M596.767 556.889l-12.26-.001-1.832-47.288 14.094.001-.002 47.288z"/><path d="M599.894 568.773l-39.531-.002c-.37-20.924 26.37-15.22 39.531-15.885z" fill="#2f2e41"/><path fill="#a0616a" d="M636.696 552.853l-12.178 1.412-11.244-46.3 17.974-2.085 5.448 46.973z"/><path d="M641.172 564.297l-39.267 4.555c-2.78-20.741 24.44-18.157 37.437-20.336zM598.96 545.663h-20.158v-75.98l-11.771-63.43-16.105-56.357 37.779-18.378 7.203 11.32c1.114 1.015 19.164 17.717 21.11 34.266 1.985 16.868-17.183 161.956-18 168.124z" fill="#2f2e41"/><path d="M552.292 361.7l-6.223-27.278c-1.46-1.404-15.273-15.564.017-33.66l8.056-21.005 23.604-7.312 9.228 7.145a28.665 28.665 0 0 1 11.07 24.565l-2.52 38.594z" fill="#2f2e41"/><path d="M572.502 227.198c24.323 13.84 4.355 50.36-20.422 37.356-24.322-13.84-4.354-50.36 20.422-37.356zM505.592 276.404a9.753 9.753 0 0 1 .111 1.532l38.05 25.77 10.052-4.858 9.316 14.21c-5.628 2.176-19.662 16.144-25.813 9.476l-38.61-35.254a9.738 9.738 0 0 1-12.436-8.902c-.756-11.915 17.737-13.766 19.33-1.974z" fill="#a0616a"/><path d="M544.465 301.457c-.163-3.078 19.304-10.043 21.2-11.522a11.581 11.581 0 0 1 12.849 19.271l-15.616 14.037a4.196 4.196 0 0 1-6.263-.798c-.898-2.32-13.871-18.381-12.17-20.988z" fill="#0d6efd"/><path d="M615.097 530.6l-25.016-62.664 16.666-23.958 36.636 84.467z" fill="#2f2e41"/><path d="M684.626 570h-165a1 1 0 0 1 0-2h165a1 1 0 0 1 0 2z" fill="#ccc"/><path d="M637.724 245.38c-8.125 1.5-16.627-.979-23.59-5.427-6.962-4.45-12.557-10.738-17.521-17.343-2.795-3.718-5.498-7.64-9.302-10.316s-9.068-3.863-13.132-1.6c-3.582 1.995-5.161 7.23-3.059 10.508-5.644-1.415-11.629-.99-17.333.217-5.495 1.163-11.079 3.169-14.882 7.303-3.803 4.133-5.241 10.85-2.028 15.456l4.768.822c8.706-1.986 12.728-1.104 21.433.882-.294-1.54 2.123-2.36 3.346-1.378s.783 2.933 1.572 4.287c3.364 5.769 3.368 12.847 1.65 18.209 8.624-3.582 14.946-13.278 16.712-22.449a20.946 20.946 0 0 0-.926-12.002 17.042 17.042 0 0 0-2.887-4.59 22.847 22.847 0 0 1 8.736 4.838c4.44 3.862 7.651 8.904 11.202 13.598 3.55 4.694 7.694 9.243 13.15 11.453 8.363 3.39 18.297.425 25.164-5.432 5.358-4.57 9.145-10.628 12.16-17.042a23.347 23.347 0 0 1-15.233 10.007zM652.958 235.374a18.425 18.425 0 0 0 2.384-5.477 108.82 108.82 0 0 1-2.384 5.477z" fill="#2f2e41"/></svg>