<svg xmlns="http://www.w3.org/2000/svg" viewBox="0 0 1000 1000"><circle fill="#F16980" cx="500" cy="499.999" r="32.692"/><path fill="#6888AE" d="M500 107.692c-216.666 0-392.308 175.642-392.308 392.308 0 216.667 175.642 392.309 392.308 392.309S892.309 716.666 892.309 500H925c0 234.72-190.28 425-425 425-234.721 0-425-190.28-425-425C75 265.279 265.279 75 500 75v32.692z"/><path fill="#5C95CF" d="M500 173.077c180.555 0 326.923 146.368 326.923 326.923 0 180.556-146.368 326.922-326.923 326.922-180.553 0-326.923-146.366-326.923-326.922h-32.692c0 198.61 161.005 359.616 359.615 359.616 198.609 0 359.616-161.006 359.616-359.616 0-198.61-161.007-359.615-359.616-359.615v32.692z"/><path fill="#7BA5D7" d="M238.461 500c0-144.444 117.095-261.54 261.539-261.54S761.539 355.556 761.539 500c0 144.445-117.095 261.538-261.539 261.538v32.692c162.498 0 294.23-131.731 294.23-294.23 0-162.5-131.732-294.231-294.23-294.231-162.499 0-294.23 131.731-294.23 294.231h32.691z"/><path fill="#99B7E0" d="M500 696.152c-108.332 0-196.154-87.821-196.154-196.153 0-108.333 87.822-196.155 196.154-196.155S696.153 391.667 696.153 500h32.693c0-126.388-102.458-228.847-228.847-228.847-126.388 0-228.846 102.458-228.846 228.847S373.612 728.846 500 728.846v-32.694z"/><path fill="#B9CCEA" d="M630.77 500c0 72.22-58.548 130.769-130.77 130.769-72.222 0-130.77-58.549-130.77-130.769 0-72.222 58.547-130.77 130.77-130.77v-32.692c-90.277 0-163.461 73.185-163.461 163.462S409.723 663.46 500 663.46c90.277 0 163.461-73.183 163.461-163.46H630.77z"/><path fill="#DAE3F3" d="M500 434.614c36.11 0 65.384 29.274 65.384 65.385 0 36.11-29.273 65.383-65.384 65.383-36.109 0-65.385-29.273-65.385-65.383h-32.692c0 54.166 43.911 98.077 98.077 98.077 54.168 0 98.077-43.911 98.077-98.077 0-54.167-43.909-98.078-98.077-98.078v32.693z"/></svg>